PathFileType	4	(X/Y/Z)	pose_F01_0-79.trc
DataRate	CameraRate	NumFrames	NumMarkers	Units	OrigDataRate	OrigDataStartFrame	OrigNumFrames
30	30	5	21	m	30	29	79
Frame#	Time	CHip			RHip			RKnee			RAnkle			RBigToe			RSmallToe			RHeel			LHip			LKnee			LAnkle			LBigToe			LSmallToe			LHeel			Neck			Nose			RShoulder			RElbow			RWrist			LShoulder			LElbow			LWrist			
		X1	Y1	Z1	X2	Y2	Z2	X3	Y3	Z3	X4	Y4	Z4	X5	Y5	Z5	X6	Y6	Z6	X7	Y7	Z7	X8	Y8	Z8	X9	Y9	Z9	X10	Y10	Z10	X11	Y11	Z11	X12	Y12	Z12	X13	Y13	Z13	X14	Y14	Z14	X15	Y15	Z15	X16	Y16	Z16	X17	Y17	Z17	X18	Y18	Z18	X19	Y19	Z19	X20	Y20	Z20	X21	Y21	Z21	
29	0.9666666666666667	-0.2608069987700243	1.8709496284750753	-0.48568754231835154	-0.26756225750806373	1.8658275837332188	-0.42039941329462605	-0.23549237421484448	1.710494463464833	-0.411635506334787	-0.26603321892118426	1.561092652319516	-0.3165851886892759	-0.23477009890688752	1.5220028743124583	-0.3548760842484468	-0.2402056104469254	1.5246360482206727	-0.3176230951608518	-0.2746886177240076	1.5578154326165647	-0.3068591516971511	-0.2482674888095475	1.8757835843645125	-0.5521438753714394	-0.23911132344852115	1.7211739208759758	-0.5785483420126153	-0.2663088401736356	1.5947045040425707	-0.560133164509819	-0.23679557013499877	1.56629595840718	-0.6186449677844289	-0.24175020345413717	1.5746566140163043	-0.6316467903921222	-0.27912666526581686	1.586085524454526	-0.537535195393741	-0.25420711411795843	2.0384202338586084	-0.491069070846573	-0.23121673377158236	2.0939925089183014	-0.5018048614862768	-0.26735102478784745	2.0367869602662685	-0.402506660676744	-0.2486295551850202	2.006005073250527	-0.3297013261799556	-0.2485946390307317	2.086717757766558	-0.39582154607934067	-0.24053014753948831	2.042374789266873	-0.5778808135524833	-0.18980117719418005	2.023938148271218	-0.6845029503308084	-0.2114189099409339	2.090141539730867	-0.6313328501724026
30	1.0	-0.25984836344912793	1.8753145339139965	-0.49182727332850634	-0.26925666967938217	1.871011663053792	-0.4276855758250476	-0.2387487149110889	1.715337553094756	-0.4132177759893572	-0.26774414143680564	1.5629877781712231	-0.3147413976915216	-0.23614769522671777	1.5218835487321658	-0.35419175078010984	-0.2377785355349772	1.5224298515190795	-0.31961192185223347	-0.27454633468099543	1.5599593963716585	-0.3070586937029349	-0.2481209512657836	1.8786145889761794	-0.5609892274856155	-0.23887785014044033	1.7284564011473367	-0.5796411619420333	-0.26636712148813835	1.5948256691136984	-0.5600627602926603	-0.2369042126687223	1.5692706080613648	-0.6192216299805848	-0.24025204617141932	1.5776532696230572	-0.6337571390650306	-0.27774477317302526	1.586901670492287	-0.536863603402239	-0.25611602911237097	2.0412042407605204	-0.4979048037439222	-0.23222334475178824	2.0970321602945576	-0.5062139724518435	-0.26940752344179814	2.039480724546077	-0.40940442795197546	-0.24872799111670782	2.0132240061082896	-0.34001368971450924	-0.25136659530895195	2.0822668893263985	-0.39479316121804453	-0.24139967647089147	2.0451645501474873	-0.5814553342282661	-0.19168791489086712	2.0254919662621753	-0.6916603573819462	-0.2102754946868003	2.086598569967422	-0.6358214298761687
31	1.0333333333333334	-0.2538315075382674	1.875585435817659	-0.4985692165624212	-0.2673396463949519	1.8724472424921046	-0.4303439275500488	-0.24577410508392203	1.7221348380902692	-0.4063882228060957	-0.2676931736215557	1.563394195663304	-0.31716298073707333	-0.23752529154654803	1.5217642231518733	-0.3535074173117729	-0.23937845542846967	1.520975476223779	-0.31742134191635674	-0.2730737905683211	1.5601246626993837	-0.30868512384175356	-0.24633372020600405	1.878843626418266	-0.5634773979260149	-0.2406722728774179	1.7292239674349208	-0.5776382027016626	-0.26438157854545785	1.5985430221077235	-0.5625189948555749	-0.23678750341924926	1.5690418359650293	-0.6192941040028356	-0.2401474209690128	1.580124166042627	-0.6344175207396332	-0.2763628810802336	1.5877178165300478	-0.5361920114107371	-0.25696402686314046	2.044150324925853	-0.5015003273908841	-0.23417772886904398	2.0987899943460753	-0.5129646075048474	-0.26843928033476216	2.041237938133499	-0.41444078079967894	-0.24894064814141806	2.0168592653377493	-0.33912189167676415	-0.2529949975312997	2.0822826022417162	-0.3964933059815867	-0.24208024092840028	2.047700818043445	-0.584452400813123	-0.19350599016803727	2.0283765606747792	-0.6986831035303918	-0.21195364839842612	2.0892227735933493	-0.6424154500666492
32	1.0666666666666667	-0.25297601542674397	1.8812772624327665	-0.5048742971844518	-0.26636794873168607	1.8779104273424458	-0.43664568502283563	-0.2494243218046001	1.7226925338806776	-0.40220715579164706	-0.26764220580630577	1.5638006131553848	-0.31958456378262506	-0.23543000130304315	1.518684771282189	-0.3553149764921487	-0.24097837532196215	1.5195211009284786	-0.31523076198047995	-0.2739623265929592	1.5592008639864463	-0.30760903736708867	-0.24704670751671493	1.88413582759086	-0.5674852424240162	-0.24593849330046963	1.7323864057499991	-0.5769565601703784	-0.2665845147232751	1.5995555471451197	-0.5601714448939963	-0.2367303835250939	1.5688716677095018	-0.6192257201532629	-0.2399653982876249	1.5790710107487802	-0.6343708336725332	-0.2786968137451413	1.5895058295525784	-0.5341278089640216	-0.2576343537175129	2.0476954411246058	-0.5044685464014512	-0.23411092355381202	2.1002970405496395	-0.5212002348773543	-0.2692344982304135	2.044302550010049	-0.41764683590264434	-0.24915330516612827	2.0204945245672086	-0.33823009363901907	-0.25462339975364756	2.082298315157034	-0.3981934507451289	-0.23970701762404018	2.054997977897668	-0.5872009706550875	-0.19297565076707948	2.0326322697611605	-0.7079074172948479	-0.21334536497078652	2.0995014687376092	-0.6499820370115946
33	1.1	-0.25269948344949206	1.8824495489800561	-0.5052353499264083	-0.2623096573942883	1.8791547374986006	-0.44124549567183047	-0.25154302447210347	1.7243031032541043	-0.40017484433095984	-0.2677570849749659	1.5643991066102494	-0.3195472535930229	-0.23499768788744757	1.5188943211412482	-0.3558705170162497	-0.2408385887743116	1.5189518534026283	-0.3152310727352171	-0.2734494965687937	1.5566404875991984	-0.3075299780663006	-0.24493536118845233	1.8842285025650003	-0.5698076223425316	-0.248070843279948	1.732262435285573	-0.5746981544452914	-0.266267611876237	1.5972050695210236	-0.5603926537488688	-0.23692258753592846	1.569206442685107	-0.6192967500629433	-0.2427197656297024	1.5773004212691601	-0.635694436046501	-0.27937546664982776	1.5871702698611698	-0.5372425781318985	-0.2565815685090502	2.049889769883012	-0.5095085692651242	-0.23393608498261434	2.1033210964759617	-0.5299505244394987	-0.268375277905917	2.0452148351951736	-0.4228914149352705	-0.2493659621908385	2.0241297837966683	-0.337338295601274	-0.25625180197599534	2.0823140280723518	-0.3998935955086711	-0.2414685051541868	2.054039890042295	-0.5928830462819099	-0.19160907780953956	2.0353550966508274	-0.7134759137873556	-0.21124536444413863	2.10329438450457	-0.6523888390715127
